<svg width="98" height="80" viewBox="0 0 98 80" fill="none" xmlns="http://www.w3.org/2000/svg">
<g clip-path="url(#clip0_4002_3983)">
<g clip-path="url(#clip1_4002_3983)">
<path d="M44.3688 67.8323C41.5984 66.3864 39.6923 66.1761 39.6923 64.2093C39.6923 62.9573 40.8229 62.0533 42.6402 62.0533C44.0138 62.0533 45.2775 62.5158 46.0086 62.8054V61.4763C45.3452 61.3432 44.3011 61.168 42.9719 61.168C40.0684 61.168 38.3398 62.4784 38.3398 64.4616C38.3398 66.6947 40.2226 67.4095 42.2828 68.3719C43.8105 69.0657 45.3873 69.645 45.3873 71.3198C45.3873 73.1698 43.7918 73.9594 41.9068 73.9594C40.4001 73.9594 38.9822 73.4385 38.4263 73.2072V74.5761C38.7813 74.6531 40.1992 74.8844 41.818 74.8844C44.3875 74.8844 46.8916 73.8613 46.8916 71.1867C46.8916 69.3179 45.8521 68.6242 44.3665 67.8346L44.3688 67.8323Z" fill="white"/>
<path d="M26.5438 68.16H31.6851V67.2747H26.5438V62.2642H31.9491V61.3789H25.168V74.6725H32.15V73.7475H26.5438V68.16Z" fill="white"/>
<path d="M65.9601 62.0533C68.2867 62.0533 69.3285 63.4011 69.3285 65.0012H71.0127C71.0127 63.6534 69.8821 61.168 65.9368 61.168C61.6597 61.168 60.375 64.52 60.375 67.7178C60.375 71.1656 61.5289 74.8844 66.1821 74.8844C68.7305 74.8844 70.1718 74.0949 70.7254 73.5926V67.2927H65.5397V68.178H69.3519V73.0344C68.887 73.4385 67.934 73.9991 66.3829 73.9991C62.8581 73.9991 61.884 70.6658 61.884 67.7762C61.884 64.8867 62.9024 62.0533 65.9625 62.0533H65.9601Z" fill="white"/>
<path d="M54.2391 61.3789H52.8633V74.6725H54.2391V61.3789Z" fill="white"/>
<path d="M52.7601 9.72679H52.8022L58.8662 21.3993H60.5527V8.2832H59.3801V20.0491H59.3404L53.1713 8.2832H51.5898V21.3993H52.7601V9.72679Z" fill="white"/>
<path d="M73.1259 20.4883H67.9238V14.9732H72.6938V14.0996H67.9238V9.15683H72.939V8.2832H66.6484V21.3993H73.1259V20.4883Z" fill="white"/>
<path d="M32.0098 8.2832H30.7344V21.4016H32.0098V8.2832Z" fill="white"/>
<path d="M45.2314 20.4883H40.0293V14.9732H44.7992V14.0996H40.0293V9.15683H45.0468V8.2832H38.7539V21.3993H45.2314V20.4883Z" fill="white"/>
<path d="M14.3032 21.3993L17.4473 9.57262H17.4893L20.6568 21.3993H22.3807L24.8287 8.2832H23.6771L21.4977 19.9931H21.458L18.3116 8.2832H16.7699L13.5627 19.9931H13.523L11.4043 8.2832H10.1289L12.5559 21.3993H14.3032Z" fill="white"/>
<path d="M85.6444 73.3037H85.5977L78.9497 61.3789H77.2422V74.6725H78.5059V62.8435H78.5503L85.0885 74.6725H86.9058V61.3789H85.6444V73.3037Z" fill="white"/>
<path d="M86.2672 41.6379C86.2672 40.2901 85.1764 39.1992 83.8309 39.1992C82.4854 39.1992 81.3945 40.2901 81.3945 41.6379C81.3945 42.9857 82.4854 44.0742 83.8309 44.0742C85.1764 44.0742 86.2672 42.9834 86.2672 41.6379Z" fill="white"/>
<path d="M77.3654 33.375H73.8732L69.0332 46.4467L64.3194 33.375H60.7852L67.1832 50.329H70.8599L77.3654 33.375Z" fill="white"/>
<path d="M15.4961 41.6379C15.4961 40.2901 14.4053 39.1992 13.0598 39.1992C11.7143 39.1992 10.6211 40.2901 10.6211 41.6379C10.6211 42.9857 11.712 44.0742 13.0598 44.0742C14.4076 44.0742 15.4961 42.9834 15.4961 41.6379Z" fill="white"/>
<path d="M28.2853 34.9404C30.9156 34.9404 31.2216 36.961 31.3057 37.9351H34.9357C34.9357 34.7979 32.3965 33.373 28.2877 33.373C22.4503 33.373 20.668 36.8652 20.668 41.6865C20.668 46.5078 23.1347 50.285 29.0819 50.285C31.6817 50.285 33.6626 49.5025 35.0875 48.7643V40.3784H28.2036V42.3499H31.6023V48.0519C31.301 48.3836 30.4531 48.7153 29.3832 48.7153C25.3001 48.7153 24.2255 45.3656 24.2255 41.4226C24.2255 39.2362 24.4498 34.9381 28.2877 34.9381L28.2853 34.9404Z" fill="white"/>
<path d="M54.7701 48.1172H42.1445V50.2545H54.7701V48.1172Z" fill="white"/>
<path d="M56.1693 33.375H40.7383V35.8487H46.7813V46.1944H50.1263V35.8487H56.1693V33.375Z" fill="white"/>
<path d="M0.289062 0V80H97.7172V0H0.289062ZM97.0094 79.2946H0.994505V0.703107H97.0094V79.2946Z" fill="white"/>
<path d="M66.6484 8.2832H72.939V9.15683H67.9238V14.0996H72.6938V14.9732H67.9238V20.4883H73.1259V21.3993H66.6484V8.2832Z" fill="white"/>
<path d="M51.5898 8.2832H53.1713L59.3404 20.0491H59.3801V8.2832H60.5527V21.3993H58.8662L52.8022 9.72679H52.7601V21.3993H51.5898V8.2832Z" fill="white"/>
<path d="M38.7539 8.2832H45.0468V9.15683H40.0293V14.0996H44.7992V14.9732H40.0293V20.4883H45.2314V21.3993H38.7539V8.2832Z" fill="white"/>
<path d="M32.0098 8.2832H30.7344V21.4016H32.0098V8.2832Z" fill="white"/>
<path d="M11.4043 8.2832L13.523 19.9931H13.5627L16.7699 8.2832H18.3116L21.458 19.9931H21.4977L23.6771 8.2832H24.8287L22.3807 21.3993H20.6568L17.4893 9.57262H17.4473L14.3032 21.3993H12.5559L10.1289 8.2832H11.4043Z" fill="white"/>
<path d="M32.15 74.6725H25.168V61.3789H31.9491V62.2642H26.5438V67.2747H31.6851V68.16H26.5438V73.7475H32.15V74.6725Z" fill="white"/>
<path d="M41.8219 74.8844C40.2031 74.8844 38.7852 74.6531 38.4302 74.5761V73.2072C38.9861 73.4385 40.404 73.9594 41.9107 73.9594C43.7957 73.9594 45.3912 73.1675 45.3912 71.3198C45.3912 69.645 43.8168 69.0657 42.2868 68.3719C40.2241 67.4095 38.3438 66.6947 38.3438 64.4616C38.3438 62.4784 40.0723 61.168 42.9758 61.168C44.305 61.168 45.3468 61.3432 46.0125 61.4763V62.8054C45.2814 62.5158 44.0177 62.0533 42.6441 62.0533C40.8268 62.0533 39.6962 62.9596 39.6962 64.2093C39.6962 66.1761 41.6023 66.3887 44.3727 67.8323C45.8583 68.6218 46.8978 69.3156 46.8978 71.1843C46.8978 73.8613 44.3937 74.8821 41.8242 74.8821L41.8219 74.8844Z" fill="white"/>
<path d="M54.2391 61.3789H52.8633V74.6725H54.2391V61.3789Z" fill="white"/>
<path d="M66.3829 73.9971C67.934 73.9971 68.8894 73.4365 69.3519 73.0324V68.1761H65.5397V67.2908H70.7254V73.5907C70.1718 74.0929 68.7305 74.8824 66.182 74.8824C61.5289 74.8824 60.375 71.1637 60.375 67.7159C60.375 64.518 61.6621 61.166 65.9368 61.166C69.8821 61.166 71.0127 63.6514 71.0127 64.9992H69.3285C69.3285 63.3991 68.2867 62.0513 65.9601 62.0513C62.9001 62.0513 61.8817 64.8054 61.8817 67.7743C61.8817 70.7432 62.8557 73.9971 66.3806 73.9971H66.3829Z" fill="white"/>
<path d="M86.9058 74.6725H85.0885L78.5503 62.8435H78.5059V74.6725H77.2422V61.3789H78.9497L85.5977 73.3037H85.6444V61.3789H86.9058V74.6725Z" fill="white"/>
<path d="M92.3579 56.5664H5.64453V57.2718H92.3579V56.5664Z" fill="white"/>
<path d="M10.6211 41.6379C10.6211 40.2901 11.712 39.1992 13.0598 39.1992C14.4076 39.1992 15.4961 40.2901 15.4961 41.6379C15.4961 42.9857 14.4053 44.0742 13.0598 44.0742C11.7143 44.0742 10.6211 42.9834 10.6211 41.6379Z" fill="white"/>
<path d="M29.3832 48.7172C30.4531 48.7172 31.301 48.3855 31.6023 48.0538V42.3519H28.2036V40.3804H35.0875V48.7663C33.6626 49.5044 31.6841 50.2869 29.0819 50.2869C23.1347 50.2869 20.668 46.4864 20.668 41.6885C20.668 36.8905 22.4479 33.375 28.2877 33.375C32.3989 33.375 34.9357 34.7999 34.9357 37.937H31.3057C31.2216 36.9629 30.9156 34.9424 28.2853 34.9424C24.4475 34.9424 24.2232 39.2428 24.2232 41.4269C24.2232 45.3699 25.2977 48.7195 29.3809 48.7195L29.3832 48.7172Z" fill="white"/>
<path d="M50.1263 35.8487V46.1944H46.7813V35.8487H40.7383V33.375H56.1693V35.8487H50.1263Z" fill="white"/>
<path d="M54.7701 48.1172H42.1445V50.2545H54.7701V48.1172Z" fill="white"/>
<path d="M60.7852 33.375H64.3194L69.0332 46.4467L73.8732 33.375H77.3654L70.8599 50.329H67.1832L60.7852 33.375Z" fill="white"/>
<path d="M81.3906 41.6379C81.3906 40.2901 82.4815 39.1992 83.827 39.1992C85.1725 39.1992 86.2633 40.2901 86.2633 41.6379C86.2633 42.9857 85.1725 44.0742 83.827 44.0742C82.4815 44.0742 81.3906 42.9834 81.3906 41.6379Z" fill="white"/>
<path d="M92.3579 25.502H5.64453V26.2074H92.3579V25.502Z" fill="white"/>
<path d="M12.4967 61.3789H9.88281V74.6725H12.763C18.3505 74.6725 19.5231 71.6288 19.5231 68.0245C19.5231 62.3997 16.3322 61.3789 12.4967 61.3789ZM12.3869 73.7475H11.2563V62.2665H12.3869C15.5334 62.2665 18.0164 63 18.0164 68.1811C18.0164 72.3997 16.2645 73.7498 12.3869 73.7498V73.7475Z" fill="white"/>
<path d="M86.2357 17.8631C85.8456 16.0388 85.4134 15.2025 83.4396 14.9549V14.9152C84.5095 14.8031 86.7286 14.0976 86.7286 11.7407C86.7286 8.88858 84.2408 8.28125 82.0194 8.28125H79.1836V21.3973H80.459V15.3707H81.4658C84.0983 15.3707 84.5912 16.3401 84.9603 18.0313L85.7008 21.3973H87.0159L86.2333 17.8608L86.2357 17.8631ZM81.2602 14.4994H80.459V9.15721H81.9189C82.7622 9.15721 85.3317 9.15721 85.3317 11.7991C85.3317 14.0042 83.1126 14.4994 81.2625 14.4994H81.2602Z" fill="white"/>
</g>
</g>
<defs>
<clipPath id="clip0_4002_3983">
<rect width="97.4258" height="80" fill="white" transform="translate(0.289062)"/>
</clipPath>
<clipPath id="clip1_4002_3983">
<rect width="97.4282" height="80" fill="white" transform="translate(0.289062)"/>
</clipPath>
</defs>
</svg>
