<?xml version="1.0" encoding="UTF-8"?>
<svg id="Livello_1" data-name="Livello 1" xmlns="http://www.w3.org/2000/svg" viewBox="0 0 535 255.19">
  <polygon points="225.22 66.28 203.61 66.28 195.36 34.68 185.71 66.51 167.47 66.51 157.71 34.44 149.23 66.28 127.96 66.28 147.37 2.95 166.43 2.95 176.65 35.6 187.11 2.95 206.05 2.95 225.22 66.28"/>
  <path d="M266.96,3.25v29.52c0,3.94-.91,6.92-2.73,8.85-1.8,1.95-4.11,2.9-7.07,2.9-6.61,0-9.81-3.84-9.81-11.75V3.25h-19.26v29.52c0,9.89,2.56,17.42,7.61,22.38,5.03,4.97,11.13,7.48,18.12,7.48,5.44,0,9.84-1.89,13.13-5.59v2.63c0,4.01-.78,6.93-2.33,8.65-1.53,1.69-4.08,2.54-7.59,2.54-4.82,0-7.86-1.54-9.31-4.71l-.28-.58h-19.11l.25,1.2c1.43,6.98,4.76,12.29,9.91,15.81,5.09,3.47,11.34,5.24,18.55,5.24,8.56,0,15.63-2.39,21.02-7.09,5.41-4.74,8.16-12.01,8.16-21.63V3.25h-19.26Z"/>
  <path d="M233.93,198.87v-.24c0-18.36,13.13-32.88,31.72-32.88,21.74,0,31.72,15.92,31.72,34.4,0,1.39,0,3.02-.11,4.53h-42.07c1.74,6.85,6.74,10.35,13.6,10.35,5.22,0,9.4-1.98,13.94-6.39l12.2,10.11c-6.04,7.67-14.76,12.78-27.31,12.78-19.75,0-33.7-13.13-33.7-32.66M276.7,193.41c-.81-6.98-4.88-11.39-10.92-11.39s-9.76,4.54-10.93,11.39h21.85Z"/>
  <path d="M377.97,198.87v-.24c0-17.77,13.83-32.77,33.7-32.77,12.9,0,21.5,5.58,26.84,14.06l-14.99,11.16c-3.02-4.18-6.39-6.63-11.74-6.63-7.09,0-12.31,6.28-12.31,13.95v.22c0,8.13,5.11,14.29,12.55,14.29,5.22,0,8.59-2.44,12.09-6.5l14.75,10.69c-5.81,8.59-14.18,14.4-28.01,14.4-18.94,0-32.88-14.87-32.88-32.65"/>
  <path d="M217.57,172.67c-5.92-5.83-13.75-8.79-23.27-8.79s-17.29,3.02-23.32,8.96c-6.04,5.95-9.1,13.6-9.1,22.75,0,5.22.91,9.98,2.68,14.1,1.79,4.13,4.16,7.41,7.08,9.77,2.89,2.31,6,4.06,9.21,5.18,3.22,1.13,6.59,1.71,10.03,1.71,6.79,0,12.12-2.04,15.9-6.07v.58c0,5.15-1.02,8.81-3.04,10.9-1.99,2.07-5.12,3.12-9.32,3.12-5.76,0-9.48-1.64-11.04-4.88l-.27-.56h-19.84l.31,1.24c1.79,7.16,5.46,12.6,10.93,16.19,5.4,3.55,12.14,5.36,20.03,5.36,9.34,0,17.08-2.63,22.98-7.81,5.95-5.22,8.98-13.35,8.98-24.14v-24.11c0-9.76-3.01-17.67-8.93-23.51M206.78,195.6c0,3.88-1.13,6.91-3.36,9.02-2.24,2.15-5.31,3.22-9.12,3.22s-6.88-1.08-9.12-3.22c-2.22-2.11-3.36-5.15-3.36-9.02s1.17-7.11,3.46-9.55c2.3-2.45,5.26-3.64,9.02-3.64s6.72,1.19,9.03,3.65c2.29,2.43,3.45,5.64,3.45,9.54"/>
  <polygon points="309.36 167.69 325.67 167.69 351.64 201.05 351.64 167.69 368.94 167.69 368.94 230.8 353.62 230.8 326.67 196.18 326.67 230.8 309.36 230.8 309.36 167.69"/>
  <path d="M481.12,167.21v29.52c0,3.94-.91,6.92-2.73,8.85-1.8,1.95-4.11,2.9-7.07,2.9-6.61,0-9.81-3.84-9.81-11.75v-29.52h-19.26v29.52c0,9.89,2.56,17.42,7.61,22.38,5.03,4.97,11.13,7.48,18.12,7.48,5.44,0,9.84-1.89,13.13-5.59v2.63c0,4.01-.78,6.93-2.33,8.65-1.53,1.69-4.08,2.54-7.59,2.54-4.82,0-7.86-1.54-9.31-4.71l-.28-.58h-19.11l.25,1.2c1.43,6.98,4.76,12.29,9.91,15.81,5.09,3.47,11.34,5.24,18.55,5.24,8.56,0,15.63-2.39,21.02-7.09,5.41-4.74,8.16-12.01,8.16-21.63v-55.84h-19.26Z"/>
  <path d="M154.28,196.29c-1.28-16.92-15.39-30.24-32.63-30.24-18.09,0-32.74,14.65-32.74,32.74s13.32,31.37,30.24,32.63v.11h35.24v-35.24h-.11ZM121.64,212.05c-7.32,0-13.27-5.94-13.27-13.27s5.94-13.27,13.27-13.27,13.27,5.94,13.27,13.27-5.94,13.27-13.27,13.27"/>
  <polygon points="6.19 73.04 27.88 73.04 42.67 127.38 52.36 95.43 70.66 95.43 80.45 127.61 88.97 95.67 110.31 95.67 90.83 159.22 71.71 159.22 61.45 126.45 50.95 159.22 31.94 159.22 6.19 73.04"/>
  <path d="M112.2,127.61v-.24c0-18.36,13.13-32.88,31.72-32.88,21.74,0,31.72,15.92,31.72,34.4,0,1.39,0,3.02-.11,4.53h-42.07c1.74,6.85,6.74,10.35,13.6,10.35,5.22,0,9.4-1.98,13.94-6.39l12.2,10.11c-6.04,7.66-14.76,12.78-27.31,12.78-19.75,0-33.7-13.13-33.7-32.66M154.97,122.15c-.81-6.98-4.88-11.39-10.92-11.39s-9.76,4.54-10.93,11.39h21.85Z"/>
  <path d="M205.78,150.5v7.67h-22.07v-84.83h22.07v30.32c4.3-5.22,9.65-9.75,19.06-9.75,14.99,0,27.88,12.42,27.88,32.53v.24c0,20.45-12.9,32.88-27.77,32.88-9.53,0-15.11-4.3-19.18-9.07M231,126.8v-.24c0-8.25-5.7-14.18-12.9-14.18s-12.78,5.93-12.78,14.18v.24c0,8.37,5.7,14.29,12.78,14.29s12.9-5.81,12.9-14.29"/>
  <path d="M528.81,225.01c0,6.26-5.08,11.34-11.34,11.34s-11.32-5.08-11.32-11.34,5.07-11.33,11.32-11.33,11.34,5.08,11.34,11.33"/>
</svg>